# Blender 4.0.2
# www.blender.org
mtllib circle_upd.mtl
o obj_0.001
v 0.000000 1.700000 3.000000
v -1.026100 1.700000 2.819100
v -0.520900 1.700000 2.954400
v 1.500000 1.700000 -2.598100
v 1.928400 1.700000 -2.298100
v 1.026100 1.700000 -2.819100
v 0.520900 1.700000 -2.954400
v 2.298100 1.700000 -1.928400
v 2.598100 1.700000 -1.500000
v 2.819100 1.700000 -1.026100
v -1.500000 1.700000 -2.598100
v -1.928400 1.700000 -2.298100
v 2.954400 1.700000 -0.520900
v 3.000000 1.700000 0.000000
v 2.954400 1.700000 0.520900
v 0.000000 1.700000 -3.000000
v -0.520900 1.700000 -2.954400
v -1.026100 1.700000 -2.819100
v -2.598100 1.700000 -1.500000
v -2.298100 1.700000 -1.928400
v -2.819100 1.700000 -1.026100
v -3.000000 1.700000 0.000000
v -2.954400 1.700000 0.520900
v -2.954400 1.700000 -0.520900
v 2.819100 1.700000 1.026100
v 2.598100 1.700000 1.500000
v 2.298100 1.700000 1.928400
v 1.928400 1.700000 2.298100
v 1.500000 1.700000 2.598100
v -2.819100 1.700000 1.026100
v -2.598100 1.700000 1.500000
v -1.928400 1.700000 2.298100
v -1.500000 1.700000 2.598100
v -2.298100 1.700000 1.928400
v 0.520900 1.700000 2.954400
v 1.026100 1.700000 2.819100
vn -0.0000 1.0000 -0.0000
vt 0.594459 0.852471
vt 0.531823 0.863522
vt 0.468220 0.863522
vt 0.201075 0.290706
vt 0.241951 0.241986
vt 0.405541 0.147529
vt 0.709320 0.798910
vt 0.654240 0.830717
vt 0.405567 0.852486
vt 0.345799 0.830733
vt 0.290706 0.798925
vt 0.136478 0.468220
vt 0.147514 0.405567
vt 0.169267 0.345799
vt 0.241986 0.758049
vt 0.852470 0.405541
vt 0.147529 0.594459
vt 0.798925 0.709294
vt 0.863522 0.531780
vt 0.830733 0.654201
vt 0.201090 0.709320
vt 0.852486 0.594433
vt 0.169283 0.654240
vt 0.758049 0.758014
vt 0.863522 0.468177
vt 0.531780 0.136478
vt 0.136478 0.531823
vt 0.798910 0.290680
vt 0.830717 0.345760
vt 0.758014 0.241951
vt 0.709294 0.201075
vt 0.654201 0.169267
vt 0.290680 0.201090
vt 0.594433 0.147514
vt 0.468177 0.136478
vt 0.345760 0.169283
s 0
usemtl color_393542
f 7/1/1 16/2/1 17/3/1
f 34/4/1 32/5/1 3/6/1
f 4/7/1 6/8/1 7/1/1
f 17/3/1 18/9/1 11/10/1
f 17/3/1 11/10/1 12/11/1
f 23/12/1 30/13/1 31/14/1
f 17/3/1 12/11/1 20/15/1
f 17/3/1 15/16/1 7/1/1
f 17/3/1 20/15/1 24/17/1
f 8/18/1 7/1/1 13/19/1
f 13/19/1 9/20/1 8/18/1
f 20/15/1 19/21/1 24/17/1
f 13/19/1 10/22/1 9/20/1
f 19/21/1 21/23/1 24/17/1
f 24/17/1 15/16/1 17/3/1
f 15/16/1 13/19/1 7/1/1
f 8/18/1 5/24/1 7/1/1
f 15/16/1 14/25/1 13/19/1
f 24/17/1 23/12/1 3/6/1
f 15/16/1 24/17/1 35/26/1
f 24/17/1 22/27/1 23/12/1
f 26/28/1 25/29/1 15/16/1
f 27/30/1 26/28/1 15/16/1
f 23/12/1 31/14/1 34/4/1
f 34/4/1 3/6/1 23/12/1
f 35/26/1 27/30/1 15/16/1
f 35/26/1 24/17/1 3/6/1
f 35/26/1 28/31/1 27/30/1
f 5/24/1 4/7/1 7/1/1
f 35/26/1 29/32/1 28/31/1
f 32/5/1 33/33/1 3/6/1
f 35/26/1 36/34/1 29/32/1
f 1/35/1 35/26/1 3/6/1
f 33/33/1 2/36/1 3/6/1
